<?xml version="1.0" standalone="no"?>
<!DOCTYPE svg PUBLIC "-//W3C//DTD SVG 20010904//EN"
 "http://www.w3.org/TR/2001/REC-SVG-20010904/DTD/svg10.dtd">
<svg version="1.0" xmlns="http://www.w3.org/2000/svg"
 width="1280.000000pt" height="970.000000pt" viewBox="0 0 1280.000000 970.000000"
 preserveAspectRatio="xMidYMid meet">
<g transform="translate(0.000000,970.000000) scale(0.100000,-0.100000)"
fill="#000000" stroke="none">
<path d="M5309 9674 c-44 -25 -55 -39 -108 -139 -16 -30 -25 -84 -37 -210 l-6
-70 41 -55 c69 -92 51 -132 -81 -169 -139 -40 -256 -100 -307 -157 -54 -61
-111 -158 -173 -294 -50 -109 -55 -129 -38 -159 7 -13 1 -43 -20 -107 -31 -92
-38 -172 -20 -228 19 -62 79 -293 91 -351 7 -34 13 -135 13 -232 l1 -172 29
-30 c27 -28 35 -31 93 -31 35 0 63 4 63 8 0 5 -13 21 -30 37 -32 31 -38 66
-18 110 15 34 34 32 58 -7 l20 -33 0 63 c0 77 -16 117 -72 178 l-43 47 3 222
c3 177 0 234 -12 282 -20 75 -11 105 38 134 19 11 46 39 60 63 61 105 81 87
95 -85 6 -70 16 -139 22 -155 6 -17 8 -54 5 -89 -9 -88 11 -402 34 -536 11
-64 20 -138 20 -165 0 -50 24 -145 79 -309 32 -99 66 -239 77 -325 9 -75 20
-100 43 -100 37 0 52 -13 78 -64 35 -69 71 -114 117 -148 53 -38 78 -36 125
12 21 22 47 40 58 40 41 0 81 -66 119 -198 14 -48 27 -95 30 -105 3 -9 17 -31
31 -47 19 -24 33 -30 62 -30 61 0 75 25 79 135 4 100 2 107 -72 229 -19 32
-40 84 -46 115 -6 31 -13 67 -16 79 -3 13 -16 35 -30 49 -19 19 -34 24 -67 23
-23 -1 -48 -1 -54 -1 -20 2 -15 36 7 56 23 21 26 66 10 154 -25 148 -29 186
-20 195 17 17 64 -49 108 -152 24 -55 59 -119 79 -141 32 -38 39 -41 83 -41
27 0 60 4 74 10 38 14 65 -13 72 -75 9 -67 27 -101 131 -243 48 -67 117 -169
152 -227 57 -96 64 -114 72 -183 6 -52 5 -109 -3 -175 -14 -116 -14 -117 77
-117 133 0 164 29 130 125 -10 27 -20 79 -23 115 -4 48 -14 82 -38 128 -21 39
-34 78 -34 100 0 20 -4 53 -9 72 -5 19 -14 69 -21 110 -21 122 -76 304 -115
380 -8 15 -38 57 -66 92 -50 62 -51 64 -45 114 5 48 2 60 -53 170 -32 66 -74
144 -93 174 -20 30 -52 88 -73 129 -20 41 -48 90 -61 110 -13 20 -35 71 -49
114 -29 88 -67 152 -149 247 -32 37 -61 82 -67 104 -11 42 -4 106 17 148 8 15
14 42 14 60 0 18 9 68 19 113 11 44 22 92 26 108 10 49 59 33 181 -59 58 -44
77 -54 110 -54 46 0 82 -31 129 -114 42 -74 97 -129 166 -166 33 -17 75 -45
94 -61 28 -25 33 -37 37 -86 4 -49 9 -60 42 -90 36 -33 37 -34 65 -17 45 27
76 13 96 -43 10 -27 19 -54 21 -61 6 -20 22 -5 45 40 37 73 4 129 -125 212
-41 26 -59 48 -108 135 -83 148 -119 195 -220 290 -74 70 -88 88 -84 107 5 18
-15 48 -99 151 -58 70 -131 157 -163 192 -95 108 -215 172 -357 193 -94 14
-108 28 -99 93 7 56 16 77 50 118 26 31 32 84 13 118 -5 11 -15 48 -20 81 -14
84 -68 180 -124 218 -53 36 -76 37 -136 4z"/>
<path d="M11424 9582 c-60 -47 -147 -97 -204 -117 -24 -8 -82 -44 -129 -79
-93 -69 -175 -120 -314 -197 -69 -39 -114 -56 -212 -78 -68 -16 -129 -32 -136
-37 -16 -9 -231 -33 -307 -34 -29 0 -73 -5 -98 -11 -59 -15 -141 10 -196 59
-48 43 -54 68 -33 132 14 41 15 60 7 93 -6 23 -13 68 -16 100 -6 73 -30 122
-79 161 -35 28 -47 31 -121 34 -73 4 -89 1 -134 -22 -73 -37 -82 -60 -82 -204
0 -121 15 -185 65 -283 8 -15 12 -35 9 -44 -8 -20 -124 -73 -178 -82 -57 -9
-169 -78 -212 -130 -41 -50 -120 -112 -203 -161 -31 -18 -67 -44 -81 -57 -14
-13 -59 -43 -100 -68 -41 -25 -100 -68 -130 -95 -30 -27 -75 -61 -100 -77 -61
-37 -70 -51 -70 -107 0 -51 17 -95 45 -118 15 -12 18 -12 26 3 12 21 42 22 59
2 7 -8 15 -15 19 -15 8 0 28 62 45 140 12 54 12 55 76 87 103 50 110 50 163 5
44 -39 96 -60 116 -48 5 4 15 23 21 44 7 20 23 55 36 78 20 35 32 44 87 62
131 45 143 29 89 -115 -62 -167 -65 -181 -52 -291 8 -75 18 -111 43 -160 l32
-62 -22 -38 c-13 -20 -40 -68 -60 -105 -35 -63 -40 -68 -66 -63 -16 3 -42 -1
-63 -11 -30 -15 -39 -15 -67 -4 -40 17 -70 15 -107 -4 -39 -20 -47 -55 -27
-119 9 -28 19 -69 23 -91 6 -38 3 -44 -50 -103 -81 -91 -125 -164 -170 -282
-32 -85 -40 -122 -43 -190 -4 -77 -2 -89 19 -120 22 -33 27 -35 85 -38 86 -4
122 17 262 152 138 134 164 150 235 142 133 -14 124 -18 145 60 12 44 83 134
107 134 24 0 16 -54 -16 -115 -41 -78 -39 -100 15 -169 54 -69 57 -102 21
-200 -24 -67 -43 -94 -157 -219 -50 -55 -84 -108 -144 -225 -43 -84 -101 -180
-129 -215 -99 -123 -166 -230 -166 -265 0 -28 18 -32 185 -42 83 -5 190 -15
238 -21 76 -10 90 -10 103 3 14 14 12 19 -16 51 -30 34 -123 87 -153 87 -21 0
-67 50 -67 73 0 23 50 70 170 159 72 53 95 79 155 168 39 58 86 119 104 137
20 20 37 51 45 82 8 31 33 77 68 123 31 40 64 91 74 112 12 26 34 49 65 68 52
33 68 62 98 173 42 157 71 257 81 275 7 13 7 28 -1 46 -13 35 -7 62 31 139 61
126 138 375 180 580 55 267 131 545 156 570 21 20 95 67 209 133 50 28 102 63
115 78 14 15 45 40 69 55 24 16 54 46 65 66 15 26 32 41 55 48 66 19 302 234
401 364 22 29 35 35 114 51 61 12 97 15 113 9 37 -14 48 -11 30 9 -28 30 -21
50 21 62 58 16 74 30 34 30 -21 0 -35 6 -39 16 -6 16 0 24 44 50 28 18 7 28
-27 14 -39 -16 -58 -3 -41 29 17 31 0 26 -55 -17z"/>
<path d="M8264 6242 c-98 -47 -150 -142 -142 -261 11 -152 100 -231 260 -231
94 0 134 17 195 83 41 44 63 106 63 176 0 78 -58 180 -128 223 -50 31 -191 36
-248 10z"/>
<path d="M4976 6176 c-54 -20 -107 -65 -135 -116 -20 -35 -24 -57 -24 -115 1
-109 40 -173 133 -220 92 -47 221 -26 286 47 52 56 64 89 64 174 0 76 -2 85
-32 130 -46 68 -110 105 -190 110 -40 3 -77 -1 -102 -10z"/>
<path d="M7170 5500 c-20 -11 -55 -19 -82 -20 -27 0 -49 -3 -49 -7 -1 -5 -3
-19 -4 -31 -3 -31 -46 -73 -87 -86 -32 -11 -33 -13 -30 -57 3 -43 -1 -51 -59
-128 -67 -90 -111 -127 -204 -172 -33 -16 -71 -36 -85 -44 -14 -8 -35 -15 -47
-15 -20 0 -23 -5 -23 -44 0 -29 -9 -59 -25 -87 -14 -24 -25 -52 -25 -61 0 -10
24 -35 53 -56 112 -83 201 -214 246 -361 49 -162 60 -227 65 -416 5 -175 21
-297 51 -400 38 -134 144 -329 245 -455 32 -40 45 -177 33 -358 -7 -112 -14
-158 -27 -176 -14 -22 -16 -44 -11 -144 4 -66 2 -123 -3 -130 -7 -10 -59 -15
-218 -18 -238 -5 -461 -19 -549 -35 -33 -6 -101 -24 -152 -40 -105 -33 -178
-45 -318 -55 l-100 -6 -53 -55 c-30 -30 -60 -71 -69 -91 -20 -50 -130 -250
-217 -397 -44 -74 -93 -141 -129 -177 -53 -52 -69 -80 -177 -305 -65 -137
-126 -272 -135 -300 -31 -94 -116 -222 -169 -254 -36 -22 -56 -18 -107 22 -46
36 -54 36 -69 0 -9 -22 -9 -38 1 -71 l13 -43 -40 -30 c-21 -17 -59 -52 -84
-77 -28 -28 -87 -68 -159 -106 -120 -63 -158 -97 -147 -131 7 -22 28 -33 119
-64 70 -24 82 -23 258 16 l125 28 90 -28 c129 -41 170 -42 233 -11 80 41 91
56 91 125 0 32 -7 75 -15 94 -22 53 -19 90 16 168 82 187 203 341 354 449 82
59 238 212 290 285 49 69 98 164 130 250 12 33 34 80 49 104 l28 43 50 -6 c55
-8 85 -21 163 -72 37 -24 70 -35 125 -44 41 -6 111 -17 155 -25 44 -7 114 -19
155 -26 41 -7 83 -16 92 -21 9 -4 34 -33 54 -64 43 -64 115 -122 197 -159 47
-20 81 -26 175 -31 70 -4 137 -3 167 4 28 6 151 13 275 17 219 6 268 11 415
41 68 15 248 69 310 95 27 10 43 8 130 -19 85 -27 123 -47 255 -134 247 -163
451 -224 538 -161 15 10 44 52 65 92 33 66 37 81 37 151 0 45 9 110 20 156 11
43 29 131 39 194 11 63 29 137 40 163 18 42 21 69 21 187 0 114 -4 154 -25
236 -30 118 -52 153 -146 234 -79 68 -119 112 -119 129 0 7 -12 23 -27 37 -28
26 -28 27 -28 157 1 146 13 188 81 284 19 27 34 55 34 65 0 9 14 50 30 91 27
68 30 86 30 187 0 63 -5 121 -11 133 -26 49 -94 129 -139 161 -51 37 -189 80
-250 78 -148 -5 -211 -37 -254 -128 -15 -33 -40 -79 -55 -104 -21 -34 -30 -65
-35 -120 -4 -41 -12 -93 -17 -114 -6 -21 -11 -139 -11 -262 l0 -224 -25 -6
c-41 -11 -182 4 -260 26 -40 11 -89 20 -108 20 -35 0 -113 -34 -167 -72 -16
-11 -36 -17 -46 -14 -9 3 -66 54 -125 114 l-107 108 -54 149 c-58 166 -84 222
-129 278 -16 21 -36 63 -43 93 -7 31 -26 71 -45 95 -31 40 -33 46 -39 158 -5
86 -12 130 -29 171 -48 119 -166 350 -226 445 -35 55 -74 122 -86 149 -38 87
-36 215 3 240 22 14 26 9 43 -58 23 -89 49 -129 124 -194 98 -84 156 -105 286
-100 89 3 108 7 173 37 89 42 142 97 196 204 38 75 38 75 34 179 -3 98 -6 110
-42 182 -49 99 -97 148 -197 196 -167 81 -317 59 -477 -70 -62 -50 -92 -62
-92 -37 0 31 66 220 107 307 85 179 76 237 -27 180z"/>
<path d="M11972 5490 c-103 -52 -172 -162 -172 -275 0 -129 92 -254 214 -290
116 -35 226 -11 310 66 75 68 100 133 94 244 -5 91 -20 125 -81 192 -62 67
-106 86 -212 91 -85 3 -93 2 -153 -28z"/>
<path d="M2373 5491 c-80 -21 -168 -95 -202 -171 -28 -64 -42 -165 -30 -220
28 -128 19 -169 -54 -238 l-35 -34 -173 -2 c-191 -4 -199 -5 -396 -79 -67 -26
-159 -53 -205 -61 -45 -7 -84 -18 -86 -22 -27 -70 -36 -78 -127 -109 -145 -51
-191 -77 -428 -248 -52 -37 -148 -110 -212 -162 -106 -85 -126 -97 -202 -120
-72 -22 -93 -34 -133 -74 -39 -39 -52 -62 -69 -118 -32 -106 -26 -139 27 -167
15 -8 40 -26 55 -40 32 -30 47 -32 86 -11 57 29 108 101 141 199 16 50 37 102
46 114 18 27 139 89 244 126 158 56 319 133 416 198 154 103 149 102 354 94
250 -9 248 -8 229 -96 -16 -76 -5 -377 17 -480 26 -117 24 -287 -4 -395 -11
-44 -26 -104 -32 -132 -7 -30 -26 -71 -44 -95 -54 -71 -84 -129 -102 -199
l-17 -66 31 -92 31 -92 -18 -54 c-24 -72 -89 -180 -165 -273 -92 -113 -91
-110 -55 -178 18 -33 50 -85 72 -117 39 -56 40 -60 26 -85 -15 -27 -24 -31
-149 -66 -106 -30 -171 -80 -409 -313 l-226 -222 -65 -10 c-36 -5 -92 -12
-124 -16 -33 -3 -79 -14 -103 -25 l-43 -19 0 -68 c0 -37 8 -97 17 -133 10 -41
16 -111 17 -190 1 -101 6 -138 24 -195 32 -97 69 -149 109 -153 38 -4 41 3 78
202 32 172 49 216 111 296 101 129 180 203 289 272 86 54 345 188 446 231 140
60 260 121 320 162 44 30 52 32 79 22 28 -11 33 -9 71 28 22 22 85 96 139 165
119 153 131 164 164 156 14 -3 67 -46 119 -94 51 -48 112 -96 135 -106 51 -23
49 -24 109 93 21 40 48 80 60 88 31 20 109 9 123 -17 14 -26 15 -22 -36 -82
-126 -147 -192 -403 -181 -699 6 -140 5 -152 -23 -259 -17 -62 -40 -128 -51
-147 -12 -19 -52 -57 -89 -84 -72 -52 -106 -103 -96 -144 4 -15 43 -48 113
-96 132 -89 188 -141 266 -243 63 -83 98 -106 164 -106 50 -1 73 -15 120 -75
76 -96 151 -130 279 -124 117 6 202 56 260 156 48 81 52 217 8 308 -38 82
-144 156 -242 171 -51 8 -152 -10 -202 -36 -44 -22 -114 -97 -137 -145 -23
-49 -49 -43 -86 20 -65 111 -71 137 -72 300 0 299 69 506 330 995 80 150 107
226 113 316 2 45 2 94 -2 109 -4 16 -47 70 -97 121 -62 64 -89 100 -89 116 0
31 -34 83 -147 223 -134 168 -190 219 -288 266 -47 22 -89 48 -94 58 -6 11 -7
32 -2 52 5 19 12 92 15 163 8 160 51 349 102 448 46 90 90 224 109 333 19 112
43 207 55 219 5 5 48 12 97 17 48 5 114 15 146 24 32 8 78 15 102 15 36 0 47
5 63 28 20 27 21 27 194 37 l173 11 142 78 c107 59 160 82 210 91 38 7 82 18
98 25 38 14 167 91 177 105 24 33 -5 111 -55 149 -77 59 -122 42 -259 -97
l-98 -99 -172 -5 c-153 -5 -180 -8 -231 -30 -66 -27 -117 -24 -154 9 -16 15
-50 23 -137 34 -113 14 -195 38 -287 84 -90 46 -100 72 -42 119 36 29 37 33
37 98 1 56 6 77 29 115 18 31 31 71 35 112 7 51 14 71 40 100 34 39 41 76 20
120 -6 14 -20 28 -32 32 -12 3 -59 29 -105 58 -81 48 -88 51 -160 53 -42 1
-90 -2 -108 -6z"/>
<path d="M11535 4710 c-61 -7 -121 -41 -157 -88 -23 -29 -28 -45 -28 -94 0
-74 -20 -98 -85 -98 -100 0 -195 -21 -244 -55 -72 -50 -212 -104 -299 -116
-42 -6 -122 -12 -177 -14 -55 -1 -130 -5 -167 -10 -78 -9 -106 -3 -145 29 -45
37 -233 107 -233 86 0 -4 14 -13 30 -20 47 -20 35 -43 -28 -54 -40 -7 -52 -14
-52 -27 0 -14 17 -23 69 -39 38 -11 74 -27 81 -35 19 -23 127 -81 196 -107 51
-18 81 -21 224 -22 143 -1 170 -4 194 -19 18 -12 26 -25 23 -35 -11 -38 -78
-185 -142 -315 -59 -119 -75 -143 -111 -168 -70 -48 -76 -61 -53 -127 30 -88
30 -88 -73 -207 -61 -71 -94 -135 -118 -237 -24 -99 -25 -189 -5 -322 20 -129
19 -260 -2 -417 -26 -200 -13 -236 128 -353 39 -33 25 -61 -84 -169 -161 -160
-170 -174 -212 -316 -36 -123 -153 -407 -200 -487 -19 -32 -33 -44 -57 -49
-45 -10 -115 -51 -134 -80 -13 -21 -14 -36 -4 -116 6 -51 13 -96 16 -101 3 -4
9 -78 13 -163 10 -174 21 -207 100 -278 46 -42 83 -54 115 -39 21 9 23 19 29
119 3 59 15 162 27 228 11 66 24 157 29 202 11 106 54 200 122 267 28 27 67
74 88 105 21 31 66 90 99 131 47 56 63 85 68 117 8 57 90 171 206 289 l90 91
8 65 c4 39 22 98 43 144 37 82 57 172 57 261 0 66 15 106 37 101 10 -2 43 -37
75 -78 47 -61 66 -78 105 -93 50 -19 128 -88 213 -189 38 -45 51 -70 60 -115
22 -108 30 -131 79 -205 64 -98 102 -135 190 -183 62 -33 97 -65 222 -198 202
-215 250 -292 264 -419 8 -75 37 -116 99 -140 44 -17 51 -17 72 -3 13 8 35 15
49 15 15 0 43 13 63 30 52 41 129 73 158 66 14 -4 38 1 61 14 21 11 46 20 55
20 20 0 119 52 158 82 28 22 59 74 60 99 0 9 -8 20 -17 25 -10 4 -108 8 -218
9 -247 3 -285 10 -370 65 -66 43 -175 161 -175 189 0 23 -87 187 -158 299 -55
86 -72 106 -107 121 -34 15 -51 33 -90 97 -27 44 -56 88 -66 99 -26 31 -58 99
-69 151 -6 26 -24 63 -41 83 -17 20 -49 65 -71 100 -32 52 -39 71 -35 97 4 24
-4 52 -30 106 -19 40 -63 146 -99 234 -35 89 -79 188 -99 221 -39 66 -65 167
-47 185 17 17 72 -3 234 -83 95 -47 152 -69 176 -69 31 0 46 -9 99 -62 50 -50
63 -58 69 -45 8 23 40 21 71 -3 31 -24 61 -26 70 -5 7 20 -20 92 -52 135 -32
44 -101 92 -206 145 -126 63 -164 89 -266 182 -106 97 -117 117 -79 148 16 12
26 31 26 46 0 14 14 44 30 66 17 23 37 64 45 91 8 27 37 96 64 153 32 68 53
130 61 179 16 100 26 125 66 159 32 29 36 30 104 24 60 -5 73 -3 91 13 37 33
68 109 84 205 8 52 19 117 24 144 17 87 13 182 -8 223 -15 30 -34 45 -93 74
-82 41 -111 47 -183 38z"/>
</g>
</svg>
